<svg xmlns="http://www.w3.org/2000/svg" xmlns:xlink="http://www.w3.org/1999/xlink" aria-hidden="true" role="img" class="iconify iconify--logos" width="128" height="128" preserveAspectRatio="xMidYMid meet" viewBox="0 0 256 256"><path fill="#41D1FF" d="M255.5 128C255.5 57.4 198.6 0 128 0S0 57.4 0 128s57.4 128 128 128s127.5-57.3 127.5-128z"></path><path fill="#3DBCFD" d="M255.5 128C255.5 57.4 198.6 0 128 0v256c70.6 0 127.5-57.3 127.5-128z"></path><path fill="#FFD03D" d="M128 0S86.6 41.4 86.6 128s41.4 128 41.4 128V0z"></path><path fill="#FFE04D" d="M128 0v256c-41.4 0-41.4-128-41.4-128S128 0 128 0z"></path><path fill="#FF6929" d="M86.6 128s-20.7-31-41.4-31S0 128 0 128s4.1 31 45.2 31s41.4-31 41.4-31z"></path><path fill="#FF7F37" d="M86.6 128c-20.7 0-41.4-31-41.4-31h82.8c-20.7 0-41.4 31-41.4 31z"></path><path fill="#003652" d="M183 128s-41.4 86.6-128 86.6S0 128 0 128s41.4-86.6 128-86.6S183 128 183 128z"></path><path fill="#004465" d="M183 128S141.6 41.4 55.2 41.4C55.2 41.4 128 0 128 0s55 128 55 128z"></path></svg> 